<?xml version="1.0" standalone="no"?>
<svg xmlns:xlink="http://www.w3.org/1999/xlink" id="wave" style="transform:rotate(0deg); transition: 0.3s" viewBox="0 0 1440 490" version="1.1" xmlns="http://www.w3.org/2000/svg"><defs><linearGradient id="sw-gradient-0" x1="0" x2="0" y1="1" y2="0"><stop stop-color="rgba(243, 244, 245, 1)" offset="0%"/><stop stop-color="rgba(243, 244, 245, 1)" offset="100%"/></linearGradient></defs><path style="transform:translate(0, 0px); opacity:1" fill="url(#sw-gradient-0)" d="M0,294L120,302.2C240,310,480,327,720,294C960,261,1200,180,1440,138.8C1680,98,1920,98,2160,147C2400,196,2640,294,2880,351.2C3120,408,3360,425,3600,367.5C3840,310,4080,180,4320,114.3C4560,49,4800,49,5040,73.5C5280,98,5520,147,5760,187.8C6000,229,6240,261,6480,269.5C6720,278,6960,261,7200,269.5C7440,278,7680,310,7920,294C8160,278,8400,212,8640,155.2C8880,98,9120,49,9360,81.7C9600,114,9840,229,10080,236.8C10320,245,10560,147,10800,98C11040,49,11280,49,11520,73.5C11760,98,12000,147,12240,138.8C12480,131,12720,65,12960,49C13200,33,13440,65,13680,89.8C13920,114,14160,131,14400,147C14640,163,14880,180,15120,212.3C15360,245,15600,294,15840,261.3C16080,229,16320,114,16560,65.3C16800,16,17040,33,17160,40.8L17280,49L17280,490L17160,490C17040,490,16800,490,16560,490C16320,490,16080,490,15840,490C15600,490,15360,490,15120,490C14880,490,14640,490,14400,490C14160,490,13920,490,13680,490C13440,490,13200,490,12960,490C12720,490,12480,490,12240,490C12000,490,11760,490,11520,490C11280,490,11040,490,10800,490C10560,490,10320,490,10080,490C9840,490,9600,490,9360,490C9120,490,8880,490,8640,490C8400,490,8160,490,7920,490C7680,490,7440,490,7200,490C6960,490,6720,490,6480,490C6240,490,6000,490,5760,490C5520,490,5280,490,5040,490C4800,490,4560,490,4320,490C4080,490,3840,490,3600,490C3360,490,3120,490,2880,490C2640,490,2400,490,2160,490C1920,490,1680,490,1440,490C1200,490,960,490,720,490C480,490,240,490,120,490L0,490Z"/></svg>